<?xml version="1.0" encoding="UTF-8" standalone="no"?>
<!-- Created with Inkscape (http://www.inkscape.org/) -->

<svg
   width="50mm"
   height="214.00002mm"
   viewBox="0 0 50 214.00002"
   version="1.1"
   id="svg1"
   xml:space="preserve"
   sodipodi:docname="veii2.svg"
   inkscape:version="1.4.3 (0d15f75042, 2025-12-25)"
   xmlns:inkscape="http://www.inkscape.org/namespaces/inkscape"
   xmlns:sodipodi="http://sodipodi.sourceforge.net/DTD/sodipodi-0.dtd"
   xmlns="http://www.w3.org/2000/svg"
   xmlns:svg="http://www.w3.org/2000/svg"><sodipodi:namedview
     id="namedview1"
     pagecolor="#ffffff"
     bordercolor="#000000"
     borderopacity="0.25"
     inkscape:showpageshadow="2"
     inkscape:pageopacity="0.0"
     inkscape:pagecheckerboard="0"
     inkscape:deskcolor="#d1d1d1"
     inkscape:document-units="mm"
     inkscape:zoom="0.70710678"
     inkscape:cx="249.60869"
     inkscape:cy="580.53466"
     inkscape:window-width="1898"
     inkscape:window-height="1014"
     inkscape:window-x="0"
     inkscape:window-y="0"
     inkscape:window-maximized="1"
     inkscape:current-layer="layer1"
     showgrid="true"><inkscape:grid
       id="grid2"
       units="mm"
       originx="1.0396558e-07"
       originy="1.0090065e-09"
       spacingx="0.99999998"
       spacingy="1"
       empcolor="#0099e5"
       empopacity="0.30196078"
       color="#0099e5"
       opacity="0.14901961"
       empspacing="5"
       enabled="true"
       visible="true" /><inkscape:page
       x="0"
       y="0"
       width="50"
       height="214.00002"
       id="page2"
       margin="0"
       bleed="0" /></sodipodi:namedview><defs
     id="defs1" /><g
     inkscape:label="Layer 1"
     inkscape:groupmode="layer"
     id="layer1"
     transform="translate(17.969876,-2.012497)"><path
       id="path19"
       style="display:inline;opacity:1;fill:#a1574b;fill-opacity:1;fill-rule:nonzero;stroke-width:0.213227"
       inkscape:label="column"
       d="m -12.730346,2.012503 a 0.21308728,0.2133753 0 0 0 -0.213092,0.213371 v 0.984365 a 0.5144384,0.51513375 0 0 0 0.150662,0.364241 l 0.504002,0.504685 a 0.5144384,0.51513375 0 0 1 0.150656,0.364234 V 6.83971 a 0.21299686,0.21328476 0 0 0 0.213091,0.213365 l 0.298818,-4.17e-4 c 0.11769,-5e-5 0.237743,0.09211 0.270106,0.205467 0.714707,2.500991 1.8687047,3.460474 4.4070027,4.098718 0.114135,0.02874 0.207249,0.146377 0.207249,0.264219 v 0.86351 a 0.21308649,0.21337451 0 0 0 0.213092,0.213372 h 0.379151 a 0.21308649,0.21337451 0 0 1 0.213086,0.213371 v 4.492561 a 0.21308728,0.2133753 0 0 1 -0.213086,0.213373 h -1.506601 c -0.117684,0 -0.309445,-0.0022 -0.424921,0.01879 -0.940473,0.17218 -0.964716,1.489272 -4.13e-4,1.657418 0.115788,0.02021 0.30765,0.01748 0.425334,0.01748 h 0.459473 a 0.21308728,0.2133753 0 0 1 0.213091,0.213387 v 0.460497 a 0.21308728,0.2133753 0 0 0 0.21309,0.213379 h 0.540198 a 0.21308728,0.2133753 0 0 1 0.213092,0.213382 v 0.180447 c 0,0.117839 -0.0028,0.308505 -0.0065,0.425919 -1.852532,59.310822 -5.2772397,119.119272 -5.8702987,178.887342 -0.0012,0.11793 -0.07185,0.27913 -0.157723,0.3597 l -0.977639,0.91766 a 0.49185507,0.4925199 0 0 0 -0.15523,0.35925 v 0.54092 a 0.24313394,0.24346258 0 0 1 -0.211422,0.24131 l -0.785323,0.10416 c -0.11668,0.0151 -0.305941,0.0402 -0.422016,0.0595 -4.757621,0.79483 -4.210609,6.47323 -0.0022,6.65882 0.117561,0.006 0.117689,0.006 0,0.006 h -2.956696 a 0.21307927,0.21336728 0 0 0 -0.213085,0.21339 l 4.27e-4,6.42249 a 0.21319047,0.21347863 0 0 0 0.213078,0.21341 l 24.5920267,0.0106 24.5924623,-0.0106 a 0.21319047,0.21347863 0 0 0 0.21306,-0.2134 l 4.23e-4,-6.4225 a 0.21307927,0.21336728 0 0 0 -0.213135,-0.21339 h -2.95701 c -0.117673,0 -0.11756,6.1e-4 0,-0.006 4.208083,-0.18559 4.755549,-5.86399 -0.0022,-6.65881 -0.116077,-0.0192 -0.305339,-0.0442 -0.422008,-0.0595 l -0.785769,-0.10417 a 0.24313394,0.24346258 0 0 1 -0.21103,-0.24132 v -0.54092 a 0.49185507,0.4925199 0 0 0 -0.155652,-0.35926 l -0.977617,-0.91764 c -0.08581,-0.0809 -0.156563,-0.24178 -0.15773,-0.3597 -0.593144,-59.76808 -4.017852,-119.57653 -5.870395,-178.887334 -0.0038,-0.117412 -0.0065,-0.308078 -0.0065,-0.425918 V 20.411589 A 0.21308728,0.2133753 0 0 1 20.29012,20.19821 h 0.540205 a 0.21308728,0.2133753 0 0 0 0.213087,-0.213385 v -0.460498 a 0.21308728,0.2133753 0 0 1 0.213095,-0.213379 h 0.459886 c 0.117685,0 0.309551,0.0024 0.425345,-0.01753 0.96429,-0.168149 0.940053,-1.485233 -4.18e-4,-1.657414 -0.115481,-0.02111 -0.307242,-0.01878 -0.424927,-0.01878 h -1.50683 A 0.21308728,0.2133753 0 0 1 19.99644,17.403831 v -4.492574 a 0.21308649,0.21337451 0 0 1 0.21309,-0.213371 h 0.379142 a 0.21308649,0.21337451 0 0 0 0.213045,-0.213393 v -0.86349 c 0,-0.117843 0.09277,-0.235519 0.206848,-0.264225 2.538288,-0.638238 3.692703,-1.597734 4.407415,-4.098724 0.03234,-0.113255 0.152005,-0.205506 0.269685,-0.205455 l 0.298826,4.17e-4 A 0.21299686,0.21328476 0 0 0 26.197539,6.839648 V 4.443339 a 0.5144384,0.51513375 0 0 1 0.15066,-0.364249 l 0.504,-0.504682 A 0.5144384,0.51513375 0 0 0 27.002886,3.210194 V 2.225838 A 0.21308728,0.2133753 0 0 0 26.789778,2.012497 H 7.0297587 Z"
       inkscape:export-filename="veii.svg"
       inkscape:export-xdpi="1.0885714"
       inkscape:export-ydpi="1.0885714" /></g></svg>
